<?xml version="1.0" encoding="UTF-8"?>
<svg xmlns="http://www.w3.org/2000/svg" version="1.1" viewBox="0 0 512 512">
  <defs>
    <style>
      .cls-1 {
        stroke-width: 7px;
      }

      .cls-1, .cls-2 {
        fill: #eceae8;
        stroke: #eceae8;
        stroke-linecap: round;
        stroke-miterlimit: 10;
      }

      .cls-2 {
        stroke-width: 6px;
      }

      .cls-3 {
        fill: #bdb5aa;
      }
    </style>
  </defs>
  <!-- Generator: Adobe Illustrator 28.7.1, SVG Export Plug-In . SVG Version: 1.2.0 Build 142)  -->
  <g>
    <g id="Ebene_1">
      <g id="bold">
        <path class="cls-3" d="M307.6,287c34.6-76,115.4-84.2,115.4-84.2V66.7c0-32.4-27.5-58.7-61.6-58.7H81.6c-34,0-61.6,26.2-61.6,58.7v352c0,32.4,27.5,58.7,61.6,58.7h232.8s-49.7-96.4-6.9-190.3h.1Z"/>
        <path class="cls-3" d="M398.3,506c-41.2,0-74.7-33.5-74.7-74.7v-112c0-26.5,21.5-48,48-48s48,21.5,48,48v106.7c0,8.8-7.2,16-16,16s-16-7.2-16-16v-106.7c0-8.8-7.2-16-16-16s-16,7.2-16,16v112c0,23.5,19.1,42.7,42.7,42.7s42.7-19.1,42.7-42.7v-144c0-8.8,7.2-16,16-16s16,7.2,16,16v144c0,41.2-33.5,74.7-74.7,74.7Z"/>
        <line class="cls-2" x1="61" y1="72" x2="383.4" y2="72"/>
        <line class="cls-2" x1="60.8" y1="121" x2="383.7" y2="121"/>
        <line class="cls-2" x1="61.7" y1="171" x2="383" y2="171"/>
        <line class="cls-2" x1="60.9" y1="220" x2="324.7" y2="220"/>
        <line class="cls-2" x1="60.9" y1="270" x2="288.5" y2="270"/>
        <line class="cls-2" x1="60.5" y1="317" x2="262.7" y2="317"/>
        <line class="cls-2" x1="60.4" y1="367" x2="262.3" y2="367"/>
        <line class="cls-1" x1="61" y1="414" x2="262.3" y2="414"/>
      </g>
    </g>
  </g>
</svg>